<svg version="1.1" xmlns="http://www.w3.org/2000/svg" xmlns:xlink="http://www.w3.org/1999/xlink" x="0px" y="0px"
	 viewBox="0 0 2295.7 732.8" style="enable-background:new 0 0 2295.7 732.8;" xml:space="preserve">
<style type="text/css">
	.st0{display:none;fill:#FFFFFF;}
	.st1{fill:#FFFFFF;}
</style>
<g id="Layer_2">
</g>
<g id="Layer_1">
	<path class="st0" d="M-110.3-667.8h2500v2500h-2500V-667.8z"/>
	<path class="st1" d="M1809.9,1.6l-218.1,726.1H1341L1496.8,205h-137.4l37.5-118.8c91.2-1.6,133.8-2.9,182.2-84.7L1809.9,1.6
		L1809.9,1.6z M1068,538.4c81.1,0,129.9-85.7,162.4-195.2L1332.8,0h-209l-114.1,385C980.8,482.4,1000.4,538.4,1068,538.4L1068,538.4
		z"/>
	<path class="st1" d="M1334.9,710.9h-193.4l30.9-104.1c-94.3,97.4-136.5,120.9-252.8,120.9c-154.2,0-226.1-96.2-165.9-299L882.2,0H0
		v727.8h1329.9L1334.9,710.9z M1649.2,693.6c0-22.4,18.1-39,39.4-39c21.2,0,39.2,16.6,39.2,39c0,22.6-18.1,39.2-39.2,39.2
		C1667.2,732.8,1649.2,716.2,1649.2,693.6z"/>
	<path class="st1" d="M1688.6,726.3c17.6,0,31.4-13.9,31.4-32.7c0-18.5-13.9-32.5-31.4-32.5c-17.8,0-31.6,14-31.6,32.5
		C1657,712.4,1670.8,726.3,1688.6,726.3L1688.6,726.3z"/>
	<path class="st1" d="M1680.4,716.2h-6.8v-45.1h17c10.6,0,15.8,3.9,15.8,12.8c0,8.1-5,11.6-11.6,12.4l12.7,19.9h-7.6l-11.8-19.5
		h-7.8L1680.4,716.2L1680.4,716.2L1680.4,716.2z"/>
	<path class="st1" d="M1688.5,690.9c5.7,0,10.9-0.4,10.9-7.3c0-5.6-5-6.6-9.8-6.6h-9.2v14H1688.5z"/>
	<path class="st1" d="M2195.1,186.2L2195.1,186.2h62.2l22.1-75.9h-62.2l30.1-100.6l-117.5,34.6l-20.1,66
		c-25.9-30.3-85.5-37.6-134.4-37.6c-72.7,0-145.7,10.4-182,99.8c-50,122.9,170.8,101.1,152.8,167c-6.9,25.2-32,31.9-53.3,31.9
		c-13.3,0-24.1-4.1-30.8-10.9c-7.2-7.5-9.3-18.3-5.2-32.6h-132c-20.6,95.7,60.1,120.8,140.1,120.8c83.4,0,135.5-21.4,167.8-56.7
		c1.2,51.9,48.5,56.9,178.4,49.8l17.6-74.4h-20.5c-36,0-67.1-10.8-58.2-41.1L2195.1,186.2z M2056.3,289.7
		c-4.1-67.3-169-51.4-144.2-114.5c8.6-21.7,22.7-28.5,46.7-28.5c10.7,0,19.9,6.1,25.4,12.2c5.6,6.1,7.8,15,5.8,26.5h95.7
		L2056.3,289.7z"/>
</g>
</svg>
